<svg width="74" height="27" viewBox="0 0 74 27" fill="none" xmlns="http://www.w3.org/2000/svg">
<path d="M26.8125 15.5859L29.1992 5.02344C29.3516 4.26172 28.793 3.5 27.9805 3.5H8.07422L7.61719 1.26562C7.46484 0.707031 6.95703 0.25 6.39844 0.25H1.21875C0.507812 0.25 0 0.808594 0 1.46875V2.28125C0 2.99219 0.507812 3.5 1.21875 3.5H4.72266L8.32812 20.9688C7.46484 21.4766 6.90625 22.3906 6.90625 23.4062C6.90625 24.9805 8.17578 26.25 9.75 26.25C11.2734 26.25 12.5938 24.9805 12.5938 23.4062C12.5938 22.6445 12.2383 21.9336 11.7305 21.375H22.3438C21.8359 21.9336 21.5312 22.6445 21.5312 23.4062C21.5312 24.9805 22.8008 26.25 24.375 26.25C25.8984 26.25 27.2188 24.9805 27.2188 23.4062C27.2188 22.2891 26.5586 21.3242 25.5938 20.8672L25.8477 19.6484C26.0508 18.8867 25.4414 18.125 24.6797 18.125H11.0703L10.7148 16.5H25.5938C26.1523 16.5 26.6602 16.1445 26.8125 15.5859Z" fill="#FFC725"/>
<circle cx="25.5" cy="17.5" r="8.5" fill="#F37335"/>
<path d="M24.639 17.0135C24.847 16.9702 25.0463 16.9398 25.237 16.9225C25.4277 16.9008 25.6118 16.89 25.7895 16.89C26.2835 16.89 26.719 16.9637 27.096 17.111C27.473 17.2583 27.7893 17.462 28.045 17.722C28.3007 17.982 28.4935 18.2875 28.6235 18.6385C28.7535 18.9852 28.8185 19.36 28.8185 19.763C28.8185 20.2613 28.7297 20.7163 28.552 21.128C28.3787 21.5397 28.136 21.8928 27.824 22.1875C27.512 22.4778 27.1415 22.7032 26.7125 22.8635C26.2878 23.0238 25.8242 23.104 25.3215 23.104C25.0268 23.104 24.7473 23.0737 24.483 23.013C24.2187 22.9523 23.9695 22.8722 23.7355 22.7725C23.5058 22.6685 23.2913 22.5515 23.092 22.4215C22.897 22.2872 22.7215 22.1463 22.5655 21.999L23.0595 21.3165C23.1635 21.1692 23.3 21.0955 23.469 21.0955C23.5773 21.0955 23.6878 21.1302 23.8005 21.1995C23.9132 21.2688 24.041 21.3447 24.184 21.427C24.3313 21.5093 24.5025 21.5852 24.6975 21.6545C24.8968 21.7238 25.1352 21.7585 25.4125 21.7585C25.7072 21.7585 25.9672 21.7108 26.1925 21.6155C26.4178 21.5202 26.6042 21.388 26.7515 21.219C26.9032 21.0457 27.0158 20.842 27.0895 20.608C27.1675 20.3697 27.2065 20.1118 27.2065 19.8345C27.2065 19.3232 27.057 18.9245 26.758 18.6385C26.4633 18.3482 26.0257 18.203 25.445 18.203C24.9987 18.203 24.5415 18.2853 24.0735 18.45L23.0725 18.164L23.8525 13.601H28.4935V14.2835C28.4935 14.5132 28.422 14.6995 28.279 14.8425C28.136 14.9855 27.8933 15.057 27.551 15.057H24.9705L24.639 17.0135Z" fill="white"/>
<path d="M42.7939 20.8716V19.3994C42.1445 19.3848 41.5635 19.3237 41.0508 19.2163C40.543 19.104 40.0791 18.9551 39.6592 18.7695V16.8359C40.0742 17.0361 40.5698 17.2192 41.146 17.3853C41.7222 17.5464 42.2715 17.644 42.7939 17.6782V15.4077C42.0225 15.105 41.4048 14.812 40.9409 14.5288C40.4819 14.2407 40.1499 13.9233 39.9448 13.5767C39.7446 13.2251 39.6445 12.8052 39.6445 12.3169C39.6445 11.8188 39.7764 11.3892 40.04 11.0278C40.3086 10.6616 40.6797 10.3687 41.1533 10.1489C41.627 9.9292 42.1738 9.79248 42.7939 9.73877V8.61816H43.7974V9.70947C44.3638 9.729 44.8911 9.79492 45.3794 9.90723C45.8726 10.0146 46.356 10.1733 46.8296 10.3833L46.1411 12.0972C45.7407 11.9312 45.3379 11.8018 44.9326 11.709C44.5322 11.6162 44.1538 11.5552 43.7974 11.5259V13.6865C44.3394 13.8867 44.8545 14.104 45.3428 14.3384C45.8311 14.5728 46.229 14.8706 46.5366 15.2319C46.8442 15.5933 46.998 16.0669 46.998 16.6528C46.998 17.3804 46.7319 17.9907 46.1997 18.4839C45.6724 18.9771 44.8716 19.2725 43.7974 19.3701V20.8716H42.7939ZM43.7974 17.627C44.1392 17.5684 44.3906 17.4683 44.5518 17.3267C44.7129 17.1802 44.7935 16.9922 44.7935 16.7627C44.7935 16.626 44.7568 16.5039 44.6836 16.3965C44.6104 16.2891 44.498 16.189 44.3467 16.0962C44.2002 15.9985 44.0171 15.9009 43.7974 15.8032V17.627ZM42.7939 13.2764V11.5552C42.5938 11.5845 42.4229 11.6333 42.2812 11.7017C42.1396 11.7651 42.0322 11.8481 41.959 11.9507C41.8857 12.0532 41.8491 12.1753 41.8491 12.3169C41.8491 12.4585 41.8809 12.583 41.9443 12.6904C42.0127 12.7979 42.1152 12.8979 42.252 12.9907C42.3936 13.0835 42.5742 13.1787 42.7939 13.2764ZM53.7803 20H51.5171V13.8037C51.5171 13.6328 51.5195 13.4229 51.5244 13.1738C51.5293 12.9199 51.5366 12.6611 51.5464 12.3975C51.5562 12.1289 51.5659 11.8872 51.5757 11.6724C51.522 11.7358 51.4121 11.8457 51.2461 12.002C51.085 12.1533 50.9336 12.29 50.792 12.4121L49.5615 13.4009L48.4702 12.0386L51.9199 9.29199H53.7803V20ZM64.2539 20H56.7686V18.4253L59.4565 15.708C59.9985 15.1514 60.4331 14.6875 60.7603 14.3164C61.0923 13.9404 61.3315 13.5986 61.478 13.291C61.6294 12.9834 61.7051 12.6538 61.7051 12.3022C61.7051 11.8774 61.5854 11.5601 61.3462 11.3501C61.1118 11.1353 60.7969 11.0278 60.4014 11.0278C59.9863 11.0278 59.5835 11.123 59.1929 11.3135C58.8022 11.5039 58.3945 11.7749 57.9697 12.1265L56.7393 10.6689C57.0469 10.4053 57.3716 10.1562 57.7134 9.92188C58.0601 9.6875 58.4604 9.49951 58.9146 9.35791C59.3735 9.21143 59.9229 9.13818 60.5625 9.13818C61.2656 9.13818 61.8687 9.26514 62.3716 9.51904C62.8794 9.77295 63.27 10.1196 63.5435 10.5591C63.8169 10.9937 63.9536 11.4868 63.9536 12.0386C63.9536 12.6294 63.8364 13.1689 63.6021 13.6572C63.3677 14.1455 63.0259 14.6289 62.5767 15.1074C62.1323 15.5859 61.5952 16.1157 60.9653 16.6968L59.5884 17.9932V18.0957H64.2539V20ZM69.249 13.1592C69.9033 13.1592 70.4844 13.2837 70.9922 13.5327C71.5049 13.7817 71.9077 14.1479 72.2007 14.6313C72.4937 15.1147 72.6401 15.7104 72.6401 16.4185C72.6401 17.1899 72.479 17.8564 72.1567 18.418C71.8394 18.9746 71.3633 19.4019 70.7285 19.6997C70.0986 19.9976 69.3125 20.1465 68.3701 20.1465C67.8086 20.1465 67.2788 20.0977 66.7808 20C66.2876 19.9072 65.8555 19.7632 65.4844 19.5679V17.6123C65.8555 17.8076 66.2998 17.9736 66.8174 18.1104C67.3398 18.2422 67.8306 18.3081 68.2896 18.3081C68.7388 18.3081 69.1172 18.2495 69.4248 18.1323C69.7324 18.0103 69.9644 17.8247 70.1206 17.5757C70.2817 17.3218 70.3623 16.9995 70.3623 16.6089C70.3623 16.0864 70.1865 15.686 69.835 15.4077C69.4834 15.1294 68.9438 14.9902 68.2163 14.9902C67.938 14.9902 67.6475 15.0171 67.3447 15.0708C67.0469 15.1245 66.7979 15.1782 66.5977 15.2319L65.6968 14.7485L66.0996 9.29199H71.9077V11.2109H68.0845L67.8867 13.313C68.0527 13.2788 68.2334 13.2446 68.4287 13.2104C68.624 13.1763 68.8975 13.1592 69.249 13.1592Z" fill="#443737"/>
</svg>
